<svg xmlns="http://www.w3.org/2000/svg" width="1011.063" height="1011.064" viewBox="0 0 1011.063 1011.064">
  <g id="Grupo_36" data-name="Grupo 36" transform="translate(-1072.166 -2561.305)">
    <path id="Trazado_287" data-name="Trazado 287" d="M1709.9,3223.135l-132.2-132.2-132.2,132.2c38.905-17.954,84.544-27.607,132.2-27.607S1671,3205.181,1709.9,3223.135Z" fill="#af202f"/>
    <path id="Trazado_288" data-name="Trazado 288" d="M1721.267,2965.939a144.805,144.805,0,0,0-1.066-17.511l-115.99,115.991,117.051,117.05c0-.128.005-.255.005-.384Z" fill="#af202f"/>
    <path id="Trazado_289" data-name="Trazado 289" d="M1430.778,2859.333a184.924,184.924,0,0,1,17.082-20.513,178.439,178.439,0,0,1,125.227-55.172c.837-.019,2.722-.028,4.608-.028s3.778.009,4.62.028a178.435,178.435,0,0,1,125.22,55.172,184.923,184.923,0,0,1,17.082,20.513c36.555-25.007,56.685-57.5,56.685-91.52v-2.9l-203.6-203.6-203.6,203.6v2.9C1374.093,2801.833,1394.223,2834.326,1430.778,2859.333Z" fill="#af202f"/>
    <path id="Trazado_290" data-name="Trazado 290" d="M1454.128,2914.335l123.57,123.57,123.57-123.57c-36.952,15.512-79.392,23.813-123.57,23.813S1491.081,2929.847,1454.128,2914.335Z" fill="#af202f"/>
    <path id="Trazado_291" data-name="Trazado 291" d="M1577.7,3324.654a143.566,143.566,0,0,0,120.492-65.593c-34.78-16.911-76.517-26.038-120.492-26.038s-85.712,9.127-120.492,26.038A143.568,143.568,0,0,0,1577.7,3324.654Z" fill="#af202f"/>
    <path id="Trazado_292" data-name="Trazado 292" d="M1745.485,2890.492c-.738.5-1.491.992-2.236,1.488a182.98,182.98,0,0,1,15.514,73.959v215.146a180.191,180.191,0,0,1-11.454,63.373c35.7,24.852,58.969,56.257,67.655,90.645l268.265-268.265-268.266-268.267C1806.13,2833.547,1782.226,2865.444,1745.485,2890.492Z" fill="#af202f"/>
    <path id="Trazado_293" data-name="Trazado 293" d="M1581.465,2821.135c-1.13-.026-6.4-.026-7.528,0-44.54,1-84.28,23.106-109.9,56.659,33.355,14.871,72.528,22.857,113.661,22.857s80.306-7.986,113.661-22.857C1665.739,2844.241,1626,2822.136,1581.465,2821.135Z" fill="#af202f"/>
    <path id="Trazado_294" data-name="Trazado 294" d="M1340.432,3335.1c8.685-34.389,31.954-65.793,67.654-90.645a180.191,180.191,0,0,1-11.454-63.373V2965.939a182.98,182.98,0,0,1,15.514-73.959c-.745-.5-1.5-.985-2.236-1.488-36.74-25.048-60.645-56.945-69.478-91.92l-268.266,268.266Z" fill="#af202f"/>
    <path id="Trazado_295" data-name="Trazado 295" d="M1374.093,3365.862v2.9l203.6,203.6,203.6-203.6v-2.9c0-32.206-18.046-63.039-50.98-87.453a180.956,180.956,0,0,1-305.249,0C1392.139,3302.823,1374.093,3333.656,1374.093,3365.862Z" fill="#af202f"/>
    <path id="Trazado_296" data-name="Trazado 296" d="M1435.194,2948.428a144.781,144.781,0,0,0-1.066,17.511v215.146c0,.129.005.257.005.385l117.052-117.051Z" fill="#af202f"/>
  </g>
</svg>
