<svg width="33" height="33" xmlns="http://www.w3.org/2000/svg">

 <g>
  <title>Layer 1</title>
  <g data-name="Icon feather-instagram" id="Icon_feather-instagram">
   <path stroke-width="3" stroke-linejoin="round" stroke-linecap="round" stroke="#000000" fill="none" d="m8.88304,1.5l15,0a7.5,7.5 0 0 1 7.5,7.5l0,15a7.5,7.5 0 0 1 -7.5,7.5l-15,0a7.5,7.5 0 0 1 -7.5,-7.5l0,-15a7.5,7.5 0 0 1 7.5,-7.5z" data-name="Trazado 452" id="Trazado_452"/>
   <path stroke-width="3" stroke-linejoin="round" stroke-linecap="round" stroke="#000000" fill="none" d="m22.38304,15.555a6,6 0 1 1 -5.055,-5.055a6,6 0 0 1 5.055,5.055z" data-name="Trazado 453" id="Trazado_453"/>
   <path stroke-width="3" stroke-linejoin="round" stroke-linecap="round" stroke="#000000" fill="none" d="m24.63304,8.25l0,0" data-name="Trazado 454" id="Trazado_454"/>
  </g>
 </g>
</svg>
