<svg xmlns="http://www.w3.org/2000/svg" width="923.575" height="923.575" viewBox="0 0 923.575 923.575">
  <path id="Trazado_285" data-name="Trazado 285" d="M2760.336,3769.3l-461.788,461.788,461.788,461.787,461.787-461.787Zm21.92,459.788,95.895-95.895a119.821,119.821,0,0,1,.881,14.477v177.872c0,.106,0,.211,0,.317Zm87.379,131.218c-32.165-14.843-69.9-22.824-109.3-22.824s-77.133,7.981-109.3,22.824l109.3-109.3Zm-109.3-153.138-102.161-102.161c30.551,12.824,65.637,19.686,102.161,19.686s71.611-6.862,102.162-19.687Zm0-113.475c-34.006,0-66.392-6.6-93.969-18.9,21.182-27.739,54.037-46.015,90.86-46.843.931-.021,5.289-.021,6.224,0,36.82.828,69.673,19.1,90.854,46.843C2826.729,4087.1,2794.343,4093.7,2760.336,4093.7Zm-118.7,231.849V4147.675a119.6,119.6,0,0,1,.881-14.477l95.9,95.895-96.772,96.772C2641.644,4325.759,2641.64,4325.654,2641.64,4325.547Zm118.7,42.94c36.357,0,70.862,7.545,99.617,21.526a118.611,118.611,0,0,1-199.234,0C2689.474,4376.032,2723.98,4368.487,2760.336,4368.487Zm149.7-42.94V4147.675a151.262,151.262,0,0,0-12.827-61.145c.617-.41,1.239-.815,1.849-1.231,30.375-20.708,50.138-47.079,57.441-76l221.789,221.789L2956.5,4452.881c-7.18-28.431-26.418-54.394-55.933-74.941A148.981,148.981,0,0,0,2910.032,4325.547Zm18.633-344.073v2.4c0,28.127-16.642,54.99-46.864,75.665a152.909,152.909,0,0,0-14.122-16.96,147.523,147.523,0,0,0-103.525-45.613c-.7-.016-2.259-.023-3.821-.023s-3.117.007-3.809.023a147.525,147.525,0,0,0-103.531,45.613,152.808,152.808,0,0,0-14.123,16.96c-30.221-20.675-46.864-47.538-46.864-75.665v-2.4l168.33-168.33Zm-364.489,27.83c7.3,28.916,27.066,55.287,57.442,76,.61.416,1.232.821,1.849,1.231a151.262,151.262,0,0,0-12.827,61.145v177.872a148.954,148.954,0,0,0,9.47,52.393c-29.515,20.546-48.753,46.51-55.934,74.941l-221.788-221.788Zm27.83,471.406v-2.4c0-26.626,14.919-52.118,42.148-72.3a149.6,149.6,0,0,0,252.364,0c27.229,20.184,42.147,45.676,42.147,72.3v2.4L2760.336,4649.04Z" transform="translate(-2298.548 -3769.305)" fill="#26290a"/>
</svg>
