<svg xmlns="http://www.w3.org/2000/svg" width="1011.064" height="1011.064" viewBox="0 0 1011.064 1011.064">
  <g id="Grupo_38" data-name="Grupo 38" transform="translate(-2254.804 -2561.305)">
    <g id="Grupo_37" data-name="Grupo 37">
      <path id="Trazado_297" data-name="Trazado 297" d="M2892.539,3223.135l-132.2-132.2-132.2,132.2c38.905-17.954,84.545-27.607,132.2-27.607S2853.634,3205.181,2892.539,3223.135Z" fill="#26290a"/>
      <path id="Trazado_298" data-name="Trazado 298" d="M2903.905,2965.939a144.806,144.806,0,0,0-1.065-17.511l-115.99,115.991,117.05,117.05c0-.128.005-.255.005-.384Z" fill="#26290a"/>
      <path id="Trazado_299" data-name="Trazado 299" d="M2613.417,2859.333a184.928,184.928,0,0,1,17.081-20.513,178.44,178.44,0,0,1,125.227-55.172c.837-.019,2.723-.028,4.608-.028s3.779.009,4.621.028a178.439,178.439,0,0,1,125.22,55.172,185.007,185.007,0,0,1,17.081,20.513c36.555-25.007,56.685-57.5,56.685-91.52v-2.9l-203.6-203.6-203.6,203.6v2.9C2556.732,2801.833,2576.862,2834.326,2613.417,2859.333Z" fill="#26290a"/>
      <path id="Trazado_300" data-name="Trazado 300" d="M2636.767,2914.335l123.569,123.57,123.571-123.57c-36.953,15.512-79.393,23.813-123.571,23.813S2673.72,2929.847,2636.767,2914.335Z" fill="#26290a"/>
      <path id="Trazado_301" data-name="Trazado 301" d="M2760.336,3324.654a143.566,143.566,0,0,0,120.492-65.593c-34.78-16.911-76.516-26.038-120.492-26.038s-85.712,9.127-120.492,26.038A143.568,143.568,0,0,0,2760.336,3324.654Z" fill="#26290a"/>
      <path id="Trazado_302" data-name="Trazado 302" d="M2928.123,2890.492c-.738.5-1.49.992-2.236,1.488a182.964,182.964,0,0,1,15.514,73.959v215.146a180.172,180.172,0,0,1-11.454,63.373c35.7,24.852,58.97,56.257,67.655,90.645l268.266-268.265L2997.6,2798.571C2988.768,2833.547,2964.864,2865.444,2928.123,2890.492Z" fill="#26290a"/>
      <path id="Trazado_303" data-name="Trazado 303" d="M2764.1,2821.135c-1.13-.026-6.4-.026-7.528,0-44.539,1-84.279,23.106-109.9,56.659,33.356,14.871,72.529,22.857,113.661,22.857s80.306-7.986,113.661-22.857C2848.378,2844.241,2808.64,2822.136,2764.1,2821.135Z" fill="#26290a"/>
      <path id="Trazado_304" data-name="Trazado 304" d="M2523.07,3335.1c8.685-34.389,31.955-65.793,67.654-90.645a180.188,180.188,0,0,1-11.454-63.373V2965.939a182.964,182.964,0,0,1,15.515-73.959c-.746-.5-1.5-.985-2.237-1.488-36.74-25.048-60.644-56.945-69.478-91.92L2254.8,3066.838Z" fill="#26290a"/>
      <path id="Trazado_305" data-name="Trazado 305" d="M2556.732,3365.862v2.9l203.6,203.6,203.6-203.6v-2.9c0-32.206-18.045-63.039-50.98-87.453a180.956,180.956,0,0,1-305.249,0C2574.777,3302.823,2556.732,3333.656,2556.732,3365.862Z" fill="#26290a"/>
      <path id="Trazado_306" data-name="Trazado 306" d="M2617.832,2948.428a144.781,144.781,0,0,0-1.066,17.511v215.146c0,.129,0,.257,0,.385l117.052-117.051Z" fill="#26290a"/>
    </g>
  </g>
</svg>
