<svg xmlns="http://www.w3.org/2000/svg" width="922.11" height="518.372" viewBox="0 0 922.11 518.372">
  <g id="Grupo_43" data-name="Grupo 43" transform="translate(-1220.641 -106.277)">
    <g id="Grupo_40" data-name="Grupo 40">
      <path id="Trazado_317" data-name="Trazado 317" d="M1229.415,523.119q-8.775-9.16-8.774-25.157v-61.5q0-19.877,7.92-29.972t24.847-10.094q14.753,0,23.76,8.076t9.007,23.293v22.984H1259.62V431.031q0-5.744-1.4-7.92t-4.814-2.174q-3.574,0-4.892,2.484a15.974,15.974,0,0,0-1.32,7.3v66.931q0,5.281,1.553,7.687a5.168,5.168,0,0,0,4.659,2.407q6.209,0,6.212-10.094v-24.07h26.865v25.158q0,33.541-33.7,33.543Q1238.187,532.282,1229.415,523.119Z" fill="#00000"/>
      <path id="Trazado_318" data-name="Trazado 318" d="M1290.989,531.039l12.889-133.4h45.19l12.734,133.4h-25.313l-1.863-21.586h-16.15l-1.554,21.586Zm29.505-42.86h12.113l-5.9-67.863h-1.243Z" fill="#00000"/>
      <path id="Trazado_319" data-name="Trazado 319" d="M1365.683,531.039V506.814l30.437-84.635h-27.487V397.643h55.75v23.294L1393.17,506.5h29.815v24.536Z" fill="#00000"/>
      <path id="Trazado_320" data-name="Trazado 320" d="M1428.419,531.039l12.889-133.4H1486.5l12.734,133.4H1473.92l-1.864-21.586h-16.15l-1.553,21.586Zm29.505-42.86h12.113l-5.9-67.863h-1.242Z" fill="#00000"/>
      <path id="Trazado_321" data-name="Trazado 321" d="M1542.09,531.039v-133.4h53.421v25.933h-26.555v21.276h25.157v25.623h-25.157v60.564Z" fill="#00000"/>
      <path id="Trazado_322" data-name="Trazado 322" d="M1599.7,531.039l12.889-133.4h45.19l12.734,133.4H1645.2l-1.863-21.586h-16.15l-1.554,21.586Zm29.505-42.86h12.113l-5.9-67.863h-1.243Z" fill="#00000"/>
      <path id="Trazado_323" data-name="Trazado 323" d="M1677.812,531.039v-133.4H1705.3l12.268,63.825V397.643h25.779v133.4h-26.089L1703.9,464.263v66.776Z" fill="#00000"/>
      <path id="Trazado_324" data-name="Trazado 324" d="M1765.86,531.039V423.266h-15.839V397.643h58.39v25.623h-15.84V531.039Z" fill="#00000"/>
      <path id="Trazado_325" data-name="Trazado 325" d="M1811.517,531.039l12.889-133.4H1869.6l12.733,133.4h-25.312l-1.864-21.586H1839l-1.553,21.586Zm29.506-42.86h12.113l-5.9-67.863h-1.242Z" fill="#00000"/>
      <path id="Trazado_326" data-name="Trazado 326" d="M1895.062,523.275q-8.076-9-8.076-29.04V481.19h26.246v16.616q0,9.941,6.367,9.939,3.57,0,4.968-2.1t1.4-7.066a32,32,0,0,0-1.553-10.793,23.574,23.574,0,0,0-3.96-7.143q-2.409-2.873-8.618-8.929l-11.492-11.492q-13.358-13.044-13.356-28.885,0-17.08,7.843-26.011t22.905-8.93q18.014,0,25.935,9.551t7.92,29.894h-27.177l-.155-9.163a5.84,5.84,0,0,0-1.475-4.192,5.413,5.413,0,0,0-4.116-1.553,5.981,5.981,0,0,0-4.658,1.708,6.666,6.666,0,0,0-1.553,4.659q0,6.522,7.454,13.51l15.53,14.908a88.894,88.894,0,0,1,9.006,10.017,39.383,39.383,0,0,1,5.747,11.181,48.05,48.05,0,0,1,2.173,15.3q0,19.723-7.221,29.894t-23.837,10.172Q1903.136,532.282,1895.062,523.275Z" fill="#00000"/>
      <path id="Trazado_327" data-name="Trazado 327" d="M1960.441,531.039v-133.4h40.686l11.181,81.373,11.181-81.373h41v133.4h-24.38V434.913l-15.374,96.126h-23.915l-16.306-96.126v96.126Z" fill="#00000"/>
      <path id="Trazado_328" data-name="Trazado 328" d="M2071.938,531.039l12.889-133.4h45.191l12.733,133.4h-25.312l-1.864-21.586h-16.15l-1.553,21.586Zm29.505-42.86h12.114l-5.9-67.863h-1.242Z" fill="#00000"/>
    </g>
    <g id="Grupo_41" data-name="Grupo 41">
      <path id="Trazado_329" data-name="Trazado 329" d="M1396.818,613.433a10.848,10.848,0,0,1-4.5-4.214,12.219,12.219,0,0,1-1.584-6.285v-12.62a12.222,12.222,0,0,1,1.584-6.285,10.692,10.692,0,0,1,4.5-4.189,14.671,14.671,0,0,1,6.744-1.482,15,15,0,0,1,6.693,1.43,10.579,10.579,0,0,1,4.5,4.037,11.377,11.377,0,0,1,1.584,6.029.609.609,0,0,1-.613.613l-4.7.255c-.408,0-.612-.186-.612-.562a6.513,6.513,0,0,0-1.866-4.854,6.785,6.785,0,0,0-4.981-1.839,6.873,6.873,0,0,0-5.007,1.839,6.464,6.464,0,0,0-1.89,4.854v13.029a6.4,6.4,0,0,0,1.89,4.8,7.742,7.742,0,0,0,9.988.026,6.425,6.425,0,0,0,1.866-4.829q0-.561.612-.562l4.7.2a.647.647,0,0,1,.435.153.463.463,0,0,1,.178.358,11.6,11.6,0,0,1-1.584,6.1,10.513,10.513,0,0,1-4.5,4.062,14.99,14.99,0,0,1-6.693,1.431A14.452,14.452,0,0,1,1396.818,613.433Z" fill="#00000"/>
      <path id="Trazado_330" data-name="Trazado 330" d="M1426.222,612.9a10.79,10.79,0,0,1-4.062-5.671,20.547,20.547,0,0,1-.052-11.65,10.5,10.5,0,0,1,4.088-5.569,12.1,12.1,0,0,1,7-1.993,11.393,11.393,0,0,1,6.719,1.993,10.646,10.646,0,0,1,4.01,5.518,16.576,16.576,0,0,1,.92,5.825,18.387,18.387,0,0,1-.868,5.825,10.991,10.991,0,0,1-4.037,5.7,11.284,11.284,0,0,1-6.8,2.07A11.662,11.662,0,0,1,1426.222,612.9Zm10.167-4.138a6.048,6.048,0,0,0,1.967-3.015,15.113,15.113,0,0,0,.511-4.292,14.167,14.167,0,0,0-.511-4.292,5.563,5.563,0,0,0-1.941-2.989,5.418,5.418,0,0,0-3.373-1.047,5.255,5.255,0,0,0-3.27,1.047,5.826,5.826,0,0,0-1.992,2.989,18.281,18.281,0,0,0,0,8.584,5.624,5.624,0,0,0,1.967,3.015,5.435,5.435,0,0,0,3.4,1.072A5.068,5.068,0,0,0,1436.389,608.759Z" fill="#00000"/>
      <path id="Trazado_331" data-name="Trazado 331" d="M1469.6,590.467a9,9,0,0,1,2.478,6.693v16.759a.611.611,0,0,1-.614.613h-4.7a.611.611,0,0,1-.613-.613V598.387a5.433,5.433,0,0,0-1.329-3.807,4.542,4.542,0,0,0-3.525-1.456,4.665,4.665,0,0,0-3.551,1.43,5.277,5.277,0,0,0-1.354,3.781v15.584a.611.611,0,0,1-.613.613h-4.7a.611.611,0,0,1-.613-.613V589.036a.611.611,0,0,1,.613-.613h4.7a.611.611,0,0,1,.613.613v1.636a.2.2,0,0,0,.1.2q.1.051.153-.1,2.1-2.76,6.336-2.76A9,9,0,0,1,1469.6,590.467Z" fill="#00000"/>
      <path id="Trazado_332" data-name="Trazado 332" d="M1491.927,593.047a.59.59,0,0,1-.434.179h-5.212a.225.225,0,0,0-.255.256v12.313a3.929,3.929,0,0,0,.843,2.81,3.6,3.6,0,0,0,2.682.869h1.533a.611.611,0,0,1,.613.613v3.832a.63.63,0,0,1-.613.664l-2.657.051q-4.037,0-6.029-1.379t-2.044-5.212V593.482a.226.226,0,0,0-.255-.256h-2.913a.609.609,0,0,1-.612-.613v-3.577a.609.609,0,0,1,.612-.613h2.913a.225.225,0,0,0,.255-.255V582.19a.611.611,0,0,1,.613-.613h4.446a.611.611,0,0,1,.613.613v5.978a.225.225,0,0,0,.255.255h5.212a.611.611,0,0,1,.613.613v3.577A.588.588,0,0,1,1491.927,593.047Z" fill="#00000"/>
      <path id="Trazado_333" data-name="Trazado 333" d="M1512.39,588.781a.635.635,0,0,1,.306.767l-.869,4.6c-.034.408-.273.528-.715.357a5.672,5.672,0,0,0-1.788-.255,7.734,7.734,0,0,0-1.022.051,5.281,5.281,0,0,0-3.576,1.507,4.891,4.891,0,0,0-1.431,3.653v14.46a.611.611,0,0,1-.613.613h-4.7a.611.611,0,0,1-.613-.613V589.036a.611.611,0,0,1,.613-.613h4.7a.611.611,0,0,1,.613.613v2.3c0,.136.025.213.077.23s.109-.026.178-.128a6.748,6.748,0,0,1,5.978-3.321A5.93,5.93,0,0,1,1512.39,588.781Z" fill="#00000"/>
      <path id="Trazado_334" data-name="Trazado 334" d="M1520.232,612.9a10.79,10.79,0,0,1-4.062-5.671,20.535,20.535,0,0,1-.051-11.65,10.5,10.5,0,0,1,4.087-5.569,12.1,12.1,0,0,1,7-1.993,11.393,11.393,0,0,1,6.719,1.993,10.647,10.647,0,0,1,4.01,5.518,16.576,16.576,0,0,1,.92,5.825,18.391,18.391,0,0,1-.868,5.825,10.986,10.986,0,0,1-4.037,5.7,11.283,11.283,0,0,1-6.795,2.07A11.665,11.665,0,0,1,1520.232,612.9Zm10.167-4.138a6.048,6.048,0,0,0,1.967-3.015,15.113,15.113,0,0,0,.511-4.292,14.167,14.167,0,0,0-.511-4.292,5.558,5.558,0,0,0-1.941-2.989,5.417,5.417,0,0,0-3.372-1.047,5.253,5.253,0,0,0-3.27,1.047,5.827,5.827,0,0,0-1.993,2.989,18.281,18.281,0,0,0,0,8.584,5.628,5.628,0,0,0,1.967,3.015,5.438,5.438,0,0,0,3.4,1.072A5.063,5.063,0,0,0,1530.4,608.759Z" fill="#00000"/>
      <path id="Trazado_335" data-name="Trazado 335" d="M1544.654,614.353a.589.589,0,0,1-.178-.434V579.38a.61.61,0,0,1,.612-.613h4.7a.609.609,0,0,1,.613.613v34.539a.609.609,0,0,1-.613.613h-4.7A.586.586,0,0,1,1544.654,614.353Z" fill="#00000"/>
      <path id="Trazado_336" data-name="Trazado 336" d="M1583.28,578.946a.588.588,0,0,1,.435-.179h4.7a.609.609,0,0,1,.613.613v34.539a.609.609,0,0,1-.613.613h-4.7a.609.609,0,0,1-.613-.613v-1.533a.206.206,0,0,0-.1-.2q-.1-.051-.2.1a7.331,7.331,0,0,1-5.876,2.657,9.873,9.873,0,0,1-6.131-1.891,10.558,10.558,0,0,1-3.627-5.262,20.781,20.781,0,0,1-.92-6.387,19.807,19.807,0,0,1,.868-6.233,10.572,10.572,0,0,1,3.628-5.263,10.133,10.133,0,0,1,6.284-1.891,7.346,7.346,0,0,1,5.774,2.555.21.21,0,0,0,.2.077c.068-.017.1-.077.1-.179V579.38A.591.591,0,0,1,1583.28,578.946Zm-.229,22.506a11.8,11.8,0,0,0-1.278-6.08,4.324,4.324,0,0,0-3.883-2.248,4.7,4.7,0,0,0-4.087,2.146,10.951,10.951,0,0,0-1.533,6.233,12.433,12.433,0,0,0,1.226,5.876,4.7,4.7,0,0,0,4.343,2.452,4.456,4.456,0,0,0,4.036-2.452A12.246,12.246,0,0,0,1583.051,601.452Z" fill="#00000"/>
      <path id="Trazado_337" data-name="Trazado 337" d="M1617.691,601.4l-.051,1.584a.542.542,0,0,1-.613.613h-15.992a.226.226,0,0,0-.256.255,7.32,7.32,0,0,0,.46,2.3q1.227,3.678,5.978,3.73a6.438,6.438,0,0,0,5.518-2.862.6.6,0,0,1,.511-.306.49.49,0,0,1,.357.153l3.168,2.606a.544.544,0,0,1,.154.817,10.434,10.434,0,0,1-4.216,3.474,13.673,13.673,0,0,1-5.85,1.227,12.266,12.266,0,0,1-6.77-1.789,10.274,10.274,0,0,1-4.061-5.006,20.082,20.082,0,0,1-1.176-7.664,15.525,15.525,0,0,1,.614-4.8,10.243,10.243,0,0,1,3.857-5.646,11.254,11.254,0,0,1,6.821-2.07q10.065,0,11.343,10.526A18.255,18.255,0,0,1,1617.691,601.4ZM1603,594.069a5,5,0,0,0-1.763,2.631,8.85,8.85,0,0,0-.408,2.249c-.069.17,0,.255.2.255h10.372a.225.225,0,0,0,.255-.255,9.638,9.638,0,0,0-.307-1.942,4.954,4.954,0,0,0-1.813-2.861,5.485,5.485,0,0,0-3.4-1.022A5.067,5.067,0,0,0,1603,594.069Z" fill="#00000"/>
      <path id="Trazado_338" data-name="Trazado 338" d="M1653.915,580.044a9.4,9.4,0,0,1,3.807,3.756,11.308,11.308,0,0,1,1.354,5.594,10.876,10.876,0,0,1-1.38,5.518,9.333,9.333,0,0,1-3.908,3.705,12.613,12.613,0,0,1-5.851,1.3h-8.175a.226.226,0,0,0-.255.256v13.744a.611.611,0,0,1-.613.613h-4.7a.611.611,0,0,1-.613-.613v-34.59a.61.61,0,0,1,.613-.613h14.051A11.716,11.716,0,0,1,1653.915,580.044Zm-2.35,13.54a5.364,5.364,0,0,0,1.584-4.036,5.6,5.6,0,0,0-1.584-4.139,5.664,5.664,0,0,0-4.19-1.584h-7.613a.225.225,0,0,0-.255.255v10.781a.225.225,0,0,0,.255.256h7.613A5.77,5.77,0,0,0,1651.565,593.584Z" fill="#00000"/>
      <path id="Trazado_339" data-name="Trazado 339" d="M1663.9,614.353a.59.59,0,0,1-.178-.434V579.38a.609.609,0,0,1,.612-.613h4.7a.609.609,0,0,1,.613.613v34.539a.609.609,0,0,1-.613.613h-4.7A.586.586,0,0,1,1663.9,614.353Z" fill="#00000"/>
      <path id="Trazado_340" data-name="Trazado 340" d="M1691.571,589.138a8.911,8.911,0,0,1,3.78,3.092,7.8,7.8,0,0,1,1.329,4.47v17.219a.611.611,0,0,1-.613.613h-4.7a.611.611,0,0,1-.614-.613v-1.635c0-.1-.034-.161-.1-.179a.211.211,0,0,0-.2.077q-2.505,2.758-7.256,2.759a9.919,9.919,0,0,1-6.31-1.942,6.882,6.882,0,0,1-2.478-5.773,7.5,7.5,0,0,1,2.784-6.208q2.785-2.223,7.844-2.223h5.467a.225.225,0,0,0,.255-.255v-1.226a4.028,4.028,0,0,0-1.175-3.092,5.006,5.006,0,0,0-3.526-1.1,6.265,6.265,0,0,0-3.142.69,3,3,0,0,0-1.507,1.916q-.153.612-.716.511l-4.956-.613a1.107,1.107,0,0,1-.434-.179.291.291,0,0,1-.128-.332,7.165,7.165,0,0,1,3.347-5.11,12.87,12.87,0,0,1,7.383-1.993A13.507,13.507,0,0,1,1691.571,589.138Zm-2.606,19.774a4.041,4.041,0,0,0,1.788-3.372v-2.4a.226.226,0,0,0-.255-.255h-4.292a7.707,7.707,0,0,0-4.267,1.022,3.28,3.28,0,0,0-1.558,2.912,2.967,2.967,0,0,0,1.2,2.529,5.042,5.042,0,0,0,3.092.894A7,7,0,0,0,1688.965,608.912Z" fill="#00000"/>
      <path id="Trazado_341" data-name="Trazado 341" d="M1718.777,588.6a.59.59,0,0,1,.434-.179h4.7a.611.611,0,0,1,.613.613v23.759q0,6.387-3.653,9.12a15.593,15.593,0,0,1-9.581,2.734q-1.583,0-3.116-.154a.576.576,0,0,1-.562-.664l.153-4.19q0-.562.716-.562a26.117,26.117,0,0,0,2.656.154q3.833,0,5.647-1.508t1.813-5.084v-.408c0-.1-.034-.161-.1-.179a.214.214,0,0,0-.2.077,7.7,7.7,0,0,1-5.926,2.248,11.432,11.432,0,0,1-6.08-1.686,8.829,8.829,0,0,1-3.832-5.161,23.719,23.719,0,0,1-.664-6.182,19.9,19.9,0,0,1,.817-6.489,9.875,9.875,0,0,1,3.525-4.981,9.568,9.568,0,0,1,5.876-1.866,8.287,8.287,0,0,1,6.284,2.351c.069.1.136.136.2.1a.206.206,0,0,0,.1-.2v-1.226A.6.6,0,0,1,1718.777,588.6Zm-.255,15.584q.077-.894.076-2.887,0-1.941-.076-2.785a8.044,8.044,0,0,0-.332-1.66,5.1,5.1,0,0,0-7.971-2.708,5.67,5.67,0,0,0-1.84,2.708,12.2,12.2,0,0,0-.613,4.5,13.317,13.317,0,0,0,.512,4.445,5.31,5.31,0,0,0,1.864,2.682,5.139,5.139,0,0,0,3.244,1.048,4.862,4.862,0,0,0,3.22-1.022,4.915,4.915,0,0,0,1.635-2.657A9.848,9.848,0,0,0,1718.522,604.186Z" fill="#00000"/>
      <path id="Trazado_342" data-name="Trazado 342" d="M1746.29,589.138a8.914,8.914,0,0,1,3.781,3.092,7.807,7.807,0,0,1,1.329,4.47v17.219a.611.611,0,0,1-.613.613h-4.7a.611.611,0,0,1-.613-.613v-1.635c0-.1-.034-.161-.1-.179a.213.213,0,0,0-.2.077q-2.5,2.758-7.255,2.759A9.917,9.917,0,0,1,1731.6,613a6.884,6.884,0,0,1-2.478-5.773,7.492,7.492,0,0,1,2.785-6.208q2.784-2.223,7.842-2.223h5.467a.226.226,0,0,0,.256-.255v-1.226a4.024,4.024,0,0,0-1.176-3.092,5,5,0,0,0-3.525-1.1,6.266,6.266,0,0,0-3.142.69,3,3,0,0,0-1.507,1.916q-.153.612-.715.511l-4.956-.613a1.112,1.112,0,0,1-.435-.179.291.291,0,0,1-.128-.332,7.164,7.164,0,0,1,3.347-5.11,12.872,12.872,0,0,1,7.383-1.993A13.5,13.5,0,0,1,1746.29,589.138Zm-2.6,19.774a4.043,4.043,0,0,0,1.788-3.372v-2.4a.226.226,0,0,0-.256-.255h-4.292a7.7,7.7,0,0,0-4.265,1.022,3.279,3.279,0,0,0-1.559,2.912,2.964,2.964,0,0,0,1.2,2.529,5.04,5.04,0,0,0,3.092.894A7,7,0,0,0,1743.685,608.912Z" fill="#00000"/>
      <path id="Trazado_343" data-name="Trazado 343" d="M1761.387,613.893a8.725,8.725,0,0,1-3.755-2.606,5.783,5.783,0,0,1-1.328-3.7v-.46a.61.61,0,0,1,.613-.612h4.5a.609.609,0,0,1,.612.612v.1a2.686,2.686,0,0,0,1.405,2.222,6.225,6.225,0,0,0,3.551.945,5.928,5.928,0,0,0,3.321-.842,2.484,2.484,0,0,0,1.278-2.121,1.9,1.9,0,0,0-1.048-1.763,16.991,16.991,0,0,0-3.4-1.252l-1.941-.612a28.688,28.688,0,0,1-4.394-1.636,8.746,8.746,0,0,1-3.014-2.375,5.914,5.914,0,0,1-1.227-3.858,6.772,6.772,0,0,1,2.811-5.7,11.989,11.989,0,0,1,7.408-2.12,13.93,13.93,0,0,1,5.467,1,8.4,8.4,0,0,1,3.628,2.759,6.675,6.675,0,0,1,1.277,4.011.611.611,0,0,1-.613.613h-4.343a.609.609,0,0,1-.613-.613,2.635,2.635,0,0,0-1.3-2.223,6.2,6.2,0,0,0-3.551-.894,6.317,6.317,0,0,0-3.244.741,2.3,2.3,0,0,0-1.252,2.069,2.014,2.014,0,0,0,1.2,1.865,21.242,21.242,0,0,0,4.011,1.405l1.124.307a36.276,36.276,0,0,1,4.548,1.66,8.89,8.89,0,0,1,3.116,2.351,5.841,5.841,0,0,1,1.277,3.909,6.645,6.645,0,0,1-2.861,5.7,12.714,12.714,0,0,1-7.612,2.07A15.486,15.486,0,0,1,1761.387,613.893Z" fill="#00000"/>
      <path id="Trazado_344" data-name="Trazado 344" d="M1799.12,613.459a10.813,10.813,0,0,1-4.523-4.215,12.209,12.209,0,0,1-1.609-6.31V579.38a.611.611,0,0,1,.613-.613h4.7a.611.611,0,0,1,.613.613v23.656a6.631,6.631,0,0,0,1.89,4.9,7.578,7.578,0,0,0,10.015,0,6.636,6.636,0,0,0,1.89-4.9V579.38a.611.611,0,0,1,.614-.613h4.7a.611.611,0,0,1,.613.613v23.554a12.353,12.353,0,0,1-1.584,6.31,10.651,10.651,0,0,1-4.5,4.215,15.97,15.97,0,0,1-13.437,0Z" fill="#00000"/>
      <path id="Trazado_345" data-name="Trazado 345" d="M1840.248,588.781a.635.635,0,0,1,.307.767l-.869,4.6c-.034.408-.272.528-.715.357a5.67,5.67,0,0,0-1.788-.255,7.734,7.734,0,0,0-1.022.051,5.285,5.285,0,0,0-3.577,1.507,4.894,4.894,0,0,0-1.43,3.653v14.46a.611.611,0,0,1-.614.613h-4.7a.611.611,0,0,1-.613-.613V589.036a.611.611,0,0,1,.613-.613h4.7a.611.611,0,0,1,.614.613v2.3c0,.136.025.213.076.23s.11-.026.179-.128a6.746,6.746,0,0,1,5.978-3.321A5.923,5.923,0,0,1,1840.248,588.781Z" fill="#00000"/>
      <path id="Trazado_346" data-name="Trazado 346" d="M1867.328,601.4a19.246,19.246,0,0,1-.971,6.387,10.572,10.572,0,0,1-3.628,5.262,9.877,9.877,0,0,1-6.131,1.891,7.362,7.362,0,0,1-5.876-2.708c-.068-.1-.137-.136-.2-.1a.206.206,0,0,0-.1.2v1.584a.609.609,0,0,1-.613.613h-4.7a.609.609,0,0,1-.613-.613V579.38a.609.609,0,0,1,.613-.613h4.7a.609.609,0,0,1,.613.613v11.087a.208.208,0,0,0,.1.205.166.166,0,0,0,.2-.052,7.239,7.239,0,0,1,5.825-2.606,10.028,10.028,0,0,1,6.259,1.891,10.954,10.954,0,0,1,3.653,5.263A21.372,21.372,0,0,1,1867.328,601.4Zm-6.08.1a10.942,10.942,0,0,0-1.534-6.233,4.544,4.544,0,0,0-4.087-2.146,4.209,4.209,0,0,0-3.832,2.248,15.317,15.317,0,0,0-.1,12.007,4.278,4.278,0,0,0,3.985,2.452,5.082,5.082,0,0,0,2.555-.638,4.689,4.689,0,0,0,1.788-1.814A11.88,11.88,0,0,0,1861.248,601.5Z" fill="#00000"/>
      <path id="Trazado_347" data-name="Trazado 347" d="M1888.633,589.138a8.914,8.914,0,0,1,3.781,3.092,7.807,7.807,0,0,1,1.329,4.47v17.219a.613.613,0,0,1-.614.613h-4.7a.613.613,0,0,1-.613-.613v-1.635c0-.1-.034-.161-.1-.179a.212.212,0,0,0-.2.077q-2.505,2.758-7.256,2.759a9.916,9.916,0,0,1-6.309-1.942,6.882,6.882,0,0,1-2.479-5.773,7.494,7.494,0,0,1,2.785-6.208q2.784-2.223,7.843-2.223h5.467a.225.225,0,0,0,.255-.255v-1.226a4.028,4.028,0,0,0-1.175-3.092,5.005,5.005,0,0,0-3.525-1.1,6.272,6.272,0,0,0-3.143.69,3,3,0,0,0-1.507,1.916q-.153.612-.715.511l-4.956-.613a1.107,1.107,0,0,1-.434-.179.291.291,0,0,1-.128-.332,7.161,7.161,0,0,1,3.347-5.11,12.866,12.866,0,0,1,7.382-1.993A13.5,13.5,0,0,1,1888.633,589.138Zm-2.606,19.774a4.041,4.041,0,0,0,1.788-3.372v-2.4a.225.225,0,0,0-.255-.255h-4.292a7.707,7.707,0,0,0-4.267,1.022,3.279,3.279,0,0,0-1.557,2.912,2.964,2.964,0,0,0,1.2,2.529,5.039,5.039,0,0,0,3.091.894A6.994,6.994,0,0,0,1886.027,608.912Z" fill="#00000"/>
      <path id="Trazado_348" data-name="Trazado 348" d="M1918.8,590.467a8.988,8.988,0,0,1,2.479,6.693v16.759a.611.611,0,0,1-.614.613h-4.7a.611.611,0,0,1-.613-.613V598.387a5.432,5.432,0,0,0-1.328-3.807,4.545,4.545,0,0,0-3.526-1.456,4.665,4.665,0,0,0-3.551,1.43,5.277,5.277,0,0,0-1.354,3.781v15.584a.611.611,0,0,1-.613.613h-4.7a.611.611,0,0,1-.614-.613V589.036a.611.611,0,0,1,.614-.613h4.7a.611.611,0,0,1,.613.613v1.636a.2.2,0,0,0,.1.2c.067.034.118,0,.152-.1q2.1-2.76,6.336-2.76A8.993,8.993,0,0,1,1918.8,590.467Z" fill="#00000"/>
      <path id="Trazado_349" data-name="Trazado 349" d="M1943.1,589.138a8.9,8.9,0,0,1,3.78,3.092,7.8,7.8,0,0,1,1.329,4.47v17.219a.611.611,0,0,1-.613.613h-4.7a.611.611,0,0,1-.613-.613v-1.635c0-.1-.034-.161-.1-.179a.212.212,0,0,0-.2.077q-2.505,2.758-7.256,2.759a9.916,9.916,0,0,1-6.309-1.942,6.882,6.882,0,0,1-2.479-5.773,7.5,7.5,0,0,1,2.785-6.208q2.784-2.223,7.843-2.223h5.467a.225.225,0,0,0,.255-.255v-1.226a4.028,4.028,0,0,0-1.175-3.092,5.005,5.005,0,0,0-3.525-1.1,6.272,6.272,0,0,0-3.143.69,3,3,0,0,0-1.507,1.916q-.153.612-.715.511l-4.956-.613a1.107,1.107,0,0,1-.434-.179.291.291,0,0,1-.128-.332,7.16,7.16,0,0,1,3.346-5.11,12.87,12.87,0,0,1,7.383-1.993A13.507,13.507,0,0,1,1943.1,589.138Zm-2.606,19.774a4.041,4.041,0,0,0,1.788-3.372v-2.4a.225.225,0,0,0-.255-.255h-4.292a7.707,7.707,0,0,0-4.267,1.022,3.279,3.279,0,0,0-1.557,2.912,2.964,2.964,0,0,0,1.2,2.529,5.039,5.039,0,0,0,3.091.894A6.994,6.994,0,0,0,1940.491,608.912Z" fill="#00000"/>
      <path id="Trazado_350" data-name="Trazado 350" d="M1958.194,613.893a8.719,8.719,0,0,1-3.755-2.606,5.773,5.773,0,0,1-1.329-3.7v-.46a.611.611,0,0,1,.613-.612h4.5a.608.608,0,0,1,.613.612v.1a2.683,2.683,0,0,0,1.406,2.222,6.22,6.22,0,0,0,3.551.945,5.931,5.931,0,0,0,3.321-.842,2.486,2.486,0,0,0,1.277-2.121,1.9,1.9,0,0,0-1.048-1.763,16.977,16.977,0,0,0-3.4-1.252L1962,603.8a28.668,28.668,0,0,1-4.393-1.636,8.758,8.758,0,0,1-3.015-2.375,5.919,5.919,0,0,1-1.226-3.858,6.771,6.771,0,0,1,2.81-5.7,11.989,11.989,0,0,1,7.408-2.12,13.923,13.923,0,0,1,5.467,1,8.385,8.385,0,0,1,3.628,2.759,6.668,6.668,0,0,1,1.277,4.011.61.61,0,0,1-.613.613H1969a.611.611,0,0,1-.613-.613,2.633,2.633,0,0,0-1.3-2.223,6.2,6.2,0,0,0-3.55-.894,6.319,6.319,0,0,0-3.245.741,2.3,2.3,0,0,0-1.252,2.069,2.015,2.015,0,0,0,1.2,1.865,21.2,21.2,0,0,0,4.01,1.405l1.125.307a36.256,36.256,0,0,1,4.547,1.66,8.885,8.885,0,0,1,3.117,2.351,5.847,5.847,0,0,1,1.277,3.909,6.645,6.645,0,0,1-2.861,5.7,12.72,12.72,0,0,1-7.613,2.07A15.48,15.48,0,0,1,1958.194,613.893Z" fill="#00000"/>
    </g>
    <g id="Grupo_42" data-name="Grupo 42">
      <path id="Trazado_351" data-name="Trazado 351" d="M1650.474,188.754l31.222,31.221,31.221-31.221a78.013,78.013,0,0,1-62.443,0Z" fill="#00000"/>
      <path id="Trazado_352" data-name="Trazado 352" d="M1647.79,249.494a34.07,34.07,0,0,0,.252,4.136l27.392-27.393-27.643-27.644c0,.031,0,.061,0,.091Z" fill="#00000"/>
      <path id="Trazado_353" data-name="Trazado 353" d="M1716.393,274.671a43.492,43.492,0,0,1-4.034,4.844,42.143,42.143,0,0,1-29.574,13.03c-.2,0-.643.007-1.088.007s-.893,0-1.091-.007a42.142,42.142,0,0,1-29.573-13.03,43.72,43.72,0,0,1-4.034-4.844c-8.633,5.906-13.387,13.579-13.387,21.614v.685l48.084,48.084,48.084-48.084v-.685C1729.78,288.25,1725.026,280.577,1716.393,274.671Z" fill="#00000"/>
      <path id="Trazado_354" data-name="Trazado 354" d="M1710.879,261.681,1681.7,232.5l-29.183,29.183a78.541,78.541,0,0,1,58.366,0Z" fill="#00000"/>
      <path id="Trazado_355" data-name="Trazado 355" d="M1681.7,164.778a33.907,33.907,0,0,0-28.456,15.491,68.918,68.918,0,0,0,56.912,0A33.907,33.907,0,0,0,1681.7,164.778Z" fill="#00000"/>
      <path id="Trazado_356" data-name="Trazado 356" d="M1642.071,267.312c.174-.119.352-.234.528-.351a43.213,43.213,0,0,1-3.664-17.467v-50.81a42.547,42.547,0,0,1,2.7-14.966c-8.431-5.869-13.927-13.286-15.978-21.408l-63.355,63.355,63.355,63.356C1627.748,280.761,1633.394,273.228,1642.071,267.312Z" fill="#00000"/>
      <path id="Trazado_357" data-name="Trazado 357" d="M1680.806,283.692c.267.006,1.512.006,1.778,0a33.67,33.67,0,0,0,25.955-13.381,69.441,69.441,0,0,0-53.686,0A33.668,33.668,0,0,0,1680.806,283.692Z" fill="#00000"/>
      <path id="Trazado_358" data-name="Trazado 358" d="M1737.73,162.311c-2.051,8.121-7.547,15.538-15.978,21.407a42.547,42.547,0,0,1,2.706,14.966v50.81a43.229,43.229,0,0,1-3.664,17.467c.176.117.353.232.528.351,8.676,5.916,14.322,13.448,16.408,21.708l63.355-63.355Z" fill="#00000"/>
      <path id="Trazado_359" data-name="Trazado 359" d="M1729.78,155.046v-.685L1681.7,106.277l-48.084,48.084v.685c0,7.606,4.262,14.888,12.04,20.654a42.735,42.735,0,0,1,72.089,0C1725.519,169.934,1729.78,162.652,1729.78,155.046Z" fill="#00000"/>
      <path id="Trazado_360" data-name="Trazado 360" d="M1715.351,253.63a34.268,34.268,0,0,0,.251-4.136v-50.81c0-.03,0-.06,0-.091l-27.643,27.644Z" fill="#00000"/>
    </g>
  </g>
</svg>
