<svg xmlns="http://www.w3.org/2000/svg" width="66.772" height="34.26" viewBox="0 0 66.772 34.26">
  <path id="Icon_awesome-handshake" data-name="Icon awesome-handshake" d="M45.353,4.5H36.391a3.671,3.671,0,0,0-2.254.749L23.881,13.276c-.01.009-.021.027-.031.036a3.2,3.2,0,0,0-.219,4.994,4.906,4.906,0,0,0,5.853.241c.01-.009.031-.009.042-.018L37.862,12a1.883,1.883,0,0,1,2.358.089,1.285,1.285,0,0,1-.1,2.016l-2.723,2.132L52.583,26.779a7.12,7.12,0,0,1,.824.687V10.208l-5.7-4.87A3.618,3.618,0,0,0,45.353,4.5Zm11.4,5.726V30.195a3.122,3.122,0,0,0,3.339,2.854h6.677V10.226Zm5.008,19.969a1.445,1.445,0,1,1,1.669-1.427A1.567,1.567,0,0,1,61.764,30.195ZM0,33.04H6.677a3.122,3.122,0,0,0,3.339-2.854V10.226H0Zm5.008-5.7a1.445,1.445,0,1,1,0,2.854,1.445,1.445,0,1,1,0-2.854ZM50.486,29,34.909,18.19l-3.13,2.453a8.448,8.448,0,0,1-10.61-.392,5.792,5.792,0,0,1,.459-9.07L30.162,4.5H21.419a3.638,3.638,0,0,0-2.358.838l-5.707,4.87V30.177h1.909l9.442,7.3a7.474,7.474,0,0,0,9.39-.829l.021-.018,1.868,1.382a4.34,4.34,0,0,0,5.457-.482l3.276-3.443.563.392a3.731,3.731,0,0,0,4.695-.419l.991-1.043A2.587,2.587,0,0,0,50.486,29Z" transform="translate(0 -4.5)" fill="#26290a"/>
</svg>
