<svg xmlns="http://www.w3.org/2000/svg" width="66.59" height="40.642" viewBox="0 0 66.59 40.642">
  <path id="Icon_awesome-thumbs-up" data-name="Icon awesome-thumbs-up" d="M13.526,17.781H3.121C1.4,17.781,0,18.634,0,19.686V38.737c0,1.052,1.4,1.905,3.121,1.905h10.4c1.724,0,3.121-.853,3.121-1.905V19.686C16.648,18.634,15.25,17.781,13.526,17.781Zm-5.2,19.686c-1.724,0-3.121-.853-3.121-1.905s1.4-1.905,3.121-1.905,3.121.853,3.121,1.905S10.048,37.467,8.324,37.467Zm41.619-31c0,3.367-3.378,5.256-4.328,7.505h13.23c4.344,0,7.725,2.2,7.745,4.612a4.879,4.879,0,0,1-2.528,3.905l-.014.009c1.279,1.852,1.071,4.448-1.211,6.308,1.129,2.056-.009,4.58-2.131,5.934a2.9,2.9,0,0,1-.8,3.543c-2.654,2.328-9.234,2.36-14.8,2.36h-.37a56.855,56.855,0,0,1-15.55-2.518,30.732,30.732,0,0,0-6.848-1.284c-.851-.01-1.532-.433-1.532-.952V18.918a.828.828,0,0,1,.463-.676c5.152-3.107,7.368-6.4,11.59-8.979,1.925-1.177,2.626-2.956,3.3-4.676C36.744,3.119,37.953,0,40.578,0,43.7,0,49.943.635,49.943,6.466Z" fill="#26290a"/>
</svg>
