<svg xmlns="http://www.w3.org/2000/svg" width="183.807" height="50" viewBox="0 0 183.807 50">
  <g id="Logotipo" transform="translate(0)">
    <g id="Grupo_15" data-name="Grupo 15" transform="translate(0.543)">
      <path id="Trazado_50" data-name="Trazado 50" d="M4027.5,536.744a8.124,8.124,0,0,1-1.744-5.511V517.762q0-4.354,1.574-6.565a5.646,5.646,0,0,1,4.938-2.211,6.429,6.429,0,0,1,4.722,1.769,6.864,6.864,0,0,1,1.79,5.1v5.035H4033.5v-4.32a3.769,3.769,0,0,0-.278-1.735,1.017,1.017,0,0,0-.957-.476.98.98,0,0,0-.973.544,3.815,3.815,0,0,0-.262,1.6v14.662a3.474,3.474,0,0,0,.309,1.684,1,1,0,0,0,.926.528q1.233,0,1.234-2.211v-5.273h5.339V531.4q0,7.348-6.7,7.348A5.846,5.846,0,0,1,4027.5,536.744Z" transform="translate(-4025.757 -508.985)" fill="#0a0a0a"/>
      <path id="Trazado_51" data-name="Trazado 51" d="M4096.1,539.45l2.562-29.222h8.981l2.531,29.222h-5.031l-.371-4.728h-3.21l-.308,4.728Zm5.864-9.389h2.407l-1.173-14.866h-.247Z" transform="translate(-4082.123 -509.956)" fill="#0a0a0a"/>
      <path id="Trazado_52" data-name="Trazado 52" d="M4170.8,539.45v-5.307l6.049-18.54h-5.462v-5.375h11.08v5.1l-6.2,18.744h5.926v5.375Z" transform="translate(-4141.972 -509.956)" fill="#0a0a0a"/>
      <path id="Trazado_53" data-name="Trazado 53" d="M4233.534,539.45l2.562-29.222h8.981l2.532,29.222h-5.032l-.37-4.728H4239l-.31,4.728Zm5.864-9.389h2.407l-1.172-14.866h-.247Z" transform="translate(-4192.239 -509.956)" fill="#0a0a0a"/>
      <path id="Trazado_54" data-name="Trazado 54" d="M4347.206,539.45V510.228h10.617v5.681h-5.278v4.661h5v5.613h-5V539.45Z" transform="translate(-4283.319 -509.956)" fill="#0a0a0a"/>
      <path id="Trazado_55" data-name="Trazado 55" d="M4404.816,539.45l2.562-29.222h8.981l2.531,29.222h-5.031l-.37-4.728h-3.21l-.308,4.728Zm5.864-9.389h2.407l-1.173-14.866h-.247Z" transform="translate(-4329.48 -509.956)" fill="#0a0a0a"/>
      <path id="Trazado_56" data-name="Trazado 56" d="M4482.928,539.45V510.228h5.463l2.438,13.981V510.228h5.123V539.45h-5.185l-2.654-14.628V539.45Z" transform="translate(-4392.067 -509.956)" fill="#0a0a0a"/>
      <path id="Trazado_57" data-name="Trazado 57" d="M4558.285,539.45V515.841h-3.148v-5.613h11.6v5.613h-3.148V539.45Z" transform="translate(-4449.925 -509.956)" fill="#0a0a0a"/>
      <path id="Trazado_58" data-name="Trazado 58" d="M4616.631,539.45l2.562-29.222h8.981l2.531,29.222h-5.031l-.371-4.728h-3.21l-.309,4.728Zm5.864-9.389h2.408l-1.173-14.866h-.247Z" transform="translate(-4499.199 -509.956)" fill="#0a0a0a"/>
      <path id="Trazado_59" data-name="Trazado 59" d="M4693.707,536.778q-1.6-1.973-1.6-6.361v-2.858h5.216v3.64q0,2.178,1.266,2.177a1.059,1.059,0,0,0,.987-.459,3.168,3.168,0,0,0,.277-1.548,7.657,7.657,0,0,0-.309-2.364,5.339,5.339,0,0,0-.787-1.565q-.479-.629-1.713-1.956l-2.284-2.517a9.093,9.093,0,0,1-2.654-6.328,8.982,8.982,0,0,1,1.559-5.7,5.475,5.475,0,0,1,4.552-1.956q3.58,0,5.155,2.092t1.574,6.549h-5.4l-.031-2.007a1.36,1.36,0,0,0-.293-.919,1.024,1.024,0,0,0-.818-.34,1.131,1.131,0,0,0-.926.374,1.559,1.559,0,0,0-.308,1.021,4.39,4.39,0,0,0,1.481,2.959l3.087,3.266a19.05,19.05,0,0,1,1.79,2.194,9,9,0,0,1,1.142,2.449,11.549,11.549,0,0,1,.432,3.351,12.18,12.18,0,0,1-1.435,6.549,5.2,5.2,0,0,1-4.737,2.228Q4695.312,538.751,4693.707,536.778Z" transform="translate(-4559.669 -508.985)" fill="#0a0a0a"/>
      <path id="Trazado_60" data-name="Trazado 60" d="M4765.556,539.45V510.228h8.086l2.222,17.826,2.222-17.826h8.148V539.45h-4.845V518.392l-3.056,21.057h-4.753l-3.241-21.057V539.45Z" transform="translate(-4618.525 -509.956)" fill="#0a0a0a"/>
      <path id="Trazado_61" data-name="Trazado 61" d="M4877.053,539.45l2.562-29.222h8.981l2.53,29.222h-5.03l-.37-4.728h-3.21l-.309,4.728Zm5.864-9.389h2.408l-1.173-14.866h-.248Z" transform="translate(-4707.863 -509.956)" fill="#0a0a0a"/>
    </g>
    <g id="Grupo_16" data-name="Grupo 16" transform="translate(0 39.859)">
      <path id="Trazado_62" data-name="Trazado 62" d="M4024.235,698.627a2.264,2.264,0,0,1-.894-.923,2.892,2.892,0,0,1-.314-1.377v-2.765a2.894,2.894,0,0,1,.314-1.377,2.229,2.229,0,0,1,.894-.918,2.7,2.7,0,0,1,1.341-.325,2.748,2.748,0,0,1,1.33.313,2.187,2.187,0,0,1,.893.884,2.685,2.685,0,0,1,.315,1.321.138.138,0,0,1-.036.1.113.113,0,0,1-.086.039l-.934.056a.108.108,0,0,1-.122-.123,1.509,1.509,0,0,0-.371-1.063,1.28,1.28,0,0,0-.99-.4,1.3,1.3,0,0,0-1,.4,1.5,1.5,0,0,0-.376,1.063v2.854a1.481,1.481,0,0,0,.376,1.052,1.431,1.431,0,0,0,1.985.006,1.488,1.488,0,0,0,.371-1.058.108.108,0,0,1,.122-.123l.934.045a.122.122,0,0,1,.086.034.106.106,0,0,1,.036.078,2.739,2.739,0,0,1-.315,1.337,2.176,2.176,0,0,1-.893.89,2.748,2.748,0,0,1-1.33.313A2.658,2.658,0,0,1,4024.235,698.627Z" transform="translate(-4023.027 -690.943)" fill="#0a0a0a"/>
      <path id="Trazado_63" data-name="Trazado 63" d="M4054.561,706.051a2.372,2.372,0,0,1-.808-1.242,4.958,4.958,0,0,1-.01-2.552,2.3,2.3,0,0,1,.813-1.22,2.244,2.244,0,0,1,1.391-.436,2.117,2.117,0,0,1,1.335.436,2.334,2.334,0,0,1,.8,1.209,3.969,3.969,0,0,1,.183,1.276,4.4,4.4,0,0,1-.173,1.276,2.416,2.416,0,0,1-.8,1.248,2.1,2.1,0,0,1-1.35.453A2.167,2.167,0,0,1,4054.561,706.051Zm2.021-.906a1.341,1.341,0,0,0,.391-.661,3.664,3.664,0,0,0,.1-.94,3.431,3.431,0,0,0-.1-.94,1.233,1.233,0,0,0-.386-.655,1.01,1.01,0,0,0-.67-.229.98.98,0,0,0-.649.229,1.293,1.293,0,0,0-.4.655,4.422,4.422,0,0,0,0,1.88,1.249,1.249,0,0,0,.392.661,1.013,1.013,0,0,0,.675.235A.948.948,0,0,0,4056.582,705.144Z" transform="translate(-4047.509 -698.484)" fill="#0a0a0a"/>
      <path id="Trazado_64" data-name="Trazado 64" d="M4086.558,701.137a2.086,2.086,0,0,1,.493,1.466v3.671a.137.137,0,0,1-.035.1.112.112,0,0,1-.086.039h-.935a.111.111,0,0,1-.086-.039.135.135,0,0,1-.036-.1v-3.4a1.264,1.264,0,0,0-.264-.834.864.864,0,0,0-.7-.319.886.886,0,0,0-.706.313,1.225,1.225,0,0,0-.269.828v3.414a.137.137,0,0,1-.036.1.112.112,0,0,1-.086.039h-.934a.112.112,0,0,1-.086-.039.135.135,0,0,1-.035-.1v-5.451a.136.136,0,0,1,.035-.1.113.113,0,0,1,.086-.039h.934a.113.113,0,0,1,.086.039.139.139,0,0,1,.036.1v.358a.047.047,0,0,0,.02.045q.021.011.031-.022a1.426,1.426,0,0,1,1.259-.6A1.7,1.7,0,0,1,4086.558,701.137Z" transform="translate(-4070.885 -698.484)" fill="#0a0a0a"/>
      <path id="Trazado_65" data-name="Trazado 65" d="M4111.915,696.675a.113.113,0,0,1-.086.039h-1.036c-.034,0-.051.018-.051.056v2.7a.92.92,0,0,0,.167.616.675.675,0,0,0,.533.19h.3a.112.112,0,0,1,.086.039.136.136,0,0,1,.036.1v.839a.133.133,0,0,1-.122.145l-.527.011a1.966,1.966,0,0,1-1.2-.3,1.39,1.39,0,0,1-.406-1.142v-3.19c0-.037-.017-.056-.05-.056h-.579a.11.11,0,0,1-.086-.039.135.135,0,0,1-.036-.1V695.8a.137.137,0,0,1,.036-.1.11.11,0,0,1,.086-.039h.579c.034,0,.05-.018.05-.056V694.3a.136.136,0,0,1,.036-.1.11.11,0,0,1,.086-.039h.883a.113.113,0,0,1,.086.039.138.138,0,0,1,.036.1v1.31c0,.037.017.056.051.056h1.036a.113.113,0,0,1,.086.039.136.136,0,0,1,.036.1v.783A.135.135,0,0,1,4111.915,696.675Z" transform="translate(-4091.803 -693.457)" fill="#0a0a0a"/>
      <path id="Trazado_66" data-name="Trazado 66" d="M4132.644,700.847a.145.145,0,0,1,.061.168l-.173,1.007q-.01.134-.142.078a1.034,1.034,0,0,0-.355-.056,1.427,1.427,0,0,0-.2.011,1,1,0,0,0-.71.33,1.131,1.131,0,0,0-.285.8v3.168a.137.137,0,0,1-.035.1.112.112,0,0,1-.086.039h-.935a.111.111,0,0,1-.086-.039.135.135,0,0,1-.036-.1V700.9a.136.136,0,0,1,.036-.1.112.112,0,0,1,.086-.039h.935a.113.113,0,0,1,.086.039.138.138,0,0,1,.035.1v.5c0,.03,0,.047.016.05s.021-.006.036-.028a1.318,1.318,0,0,1,1.188-.727A1.09,1.09,0,0,1,4132.644,700.847Z" transform="translate(-4108.466 -698.564)" fill="#0a0a0a"/>
      <path id="Trazado_67" data-name="Trazado 67" d="M4148.572,706.051a2.375,2.375,0,0,1-.808-1.242,4.637,4.637,0,0,1-.172-1.276,4.559,4.559,0,0,1,.163-1.276,2.3,2.3,0,0,1,.812-1.22,2.248,2.248,0,0,1,1.391-.436,2.119,2.119,0,0,1,1.336.436,2.334,2.334,0,0,1,.8,1.209,3.969,3.969,0,0,1,.183,1.276,4.413,4.413,0,0,1-.172,1.276,2.422,2.422,0,0,1-.8,1.248,2.1,2.1,0,0,1-1.351.453A2.168,2.168,0,0,1,4148.572,706.051Zm2.021-.906a1.341,1.341,0,0,0,.391-.661,3.619,3.619,0,0,0,.1-.94,3.39,3.39,0,0,0-.1-.94,1.235,1.235,0,0,0-.385-.655,1.012,1.012,0,0,0-.67-.229.982.982,0,0,0-.65.229,1.289,1.289,0,0,0-.4.655,4.4,4.4,0,0,0,0,1.88,1.248,1.248,0,0,0,.391.661,1.015,1.015,0,0,0,.676.235A.947.947,0,0,0,4150.592,705.144Z" transform="translate(-4122.835 -698.484)" fill="#0a0a0a"/>
      <path id="Trazado_68" data-name="Trazado 68" d="M4176.8,699.147a.135.135,0,0,1-.036-.1v-7.566a.135.135,0,0,1,.036-.1.113.113,0,0,1,.086-.039h.934a.113.113,0,0,1,.086.039.135.135,0,0,1,.035.1v7.566a.135.135,0,0,1-.035.1.113.113,0,0,1-.086.039h-.934A.113.113,0,0,1,4176.8,699.147Z" transform="translate(-4146.211 -691.262)" fill="#0a0a0a"/>
      <path id="Trazado_69" data-name="Trazado 69" d="M4201.917,691.391a.113.113,0,0,1,.087-.039h.934a.111.111,0,0,1,.086.039.135.135,0,0,1,.035.1v7.566a.135.135,0,0,1-.035.1.111.111,0,0,1-.086.039H4202a.112.112,0,0,1-.087-.039.137.137,0,0,1-.035-.1v-.336a.047.047,0,0,0-.021-.045c-.014-.007-.027,0-.041.022a1.4,1.4,0,0,1-1.167.582,1.841,1.841,0,0,1-1.219-.414,2.325,2.325,0,0,1-.721-1.153,4.983,4.983,0,0,1-.183-1.4,4.727,4.727,0,0,1,.173-1.365,2.325,2.325,0,0,1,.72-1.153,1.888,1.888,0,0,1,1.249-.414,1.405,1.405,0,0,1,1.148.56.039.039,0,0,0,.041.017c.013,0,.021-.017.021-.039v-2.429A.137.137,0,0,1,4201.917,691.391Zm-.045,4.93a2.808,2.808,0,0,0-.254-1.332.849.849,0,0,0-.771-.492.913.913,0,0,0-.812.47,2.592,2.592,0,0,0-.3,1.365,2.956,2.956,0,0,0,.244,1.287.921.921,0,0,0,.863.537.877.877,0,0,0,.8-.537A2.911,2.911,0,0,0,4201.872,696.321Z" transform="translate(-4163.65 -691.262)" fill="#0a0a0a"/>
      <path id="Trazado_70" data-name="Trazado 70" d="M4231.683,703.532l-.01.347c0,.09-.041.134-.122.134h-3.178c-.033,0-.05.019-.05.056a1.738,1.738,0,0,0,.091.5,1.119,1.119,0,0,0,1.188.817,1.248,1.248,0,0,0,1.1-.627.117.117,0,0,1,.1-.067.094.094,0,0,1,.071.034l.629.571a.126.126,0,0,1,.03.179,2.129,2.129,0,0,1-.838.761,2.506,2.506,0,0,1-1.163.269,2.272,2.272,0,0,1-1.346-.392,2.229,2.229,0,0,1-.807-1.1,4.821,4.821,0,0,1-.233-1.679,3.736,3.736,0,0,1,.122-1.052,2.262,2.262,0,0,1,.767-1.237,2.1,2.1,0,0,1,1.356-.453q2,0,2.254,2.306A4.426,4.426,0,0,1,4231.683,703.532Zm-2.919-1.606a1.1,1.1,0,0,0-.351.577,2.1,2.1,0,0,0-.082.492c-.013.037,0,.056.041.056h2.062c.033,0,.05-.018.05-.056a2.307,2.307,0,0,0-.061-.425,1.1,1.1,0,0,0-.361-.627,1.02,1.02,0,0,0-.675-.224A.942.942,0,0,0,4228.764,701.926Z" transform="translate(-4186.576 -698.484)" fill="#0a0a0a"/>
      <path id="Trazado_71" data-name="Trazado 71" d="M4269.912,691.592a1.966,1.966,0,0,1,.757.823,2.681,2.681,0,0,1,.27,1.225,2.575,2.575,0,0,1-.275,1.209,1.944,1.944,0,0,1-.776.811,2.317,2.317,0,0,1-1.163.285H4267.1c-.035,0-.051.019-.051.056v3.011a.138.138,0,0,1-.036.1.111.111,0,0,1-.086.039h-.935a.111.111,0,0,1-.086-.039.135.135,0,0,1-.036-.1v-7.577a.137.137,0,0,1,.036-.1.112.112,0,0,1,.086-.039h2.792A2.155,2.155,0,0,1,4269.912,691.592Zm-.467,2.966a1.242,1.242,0,0,0,.315-.884,1.3,1.3,0,0,0-.315-.907,1.07,1.07,0,0,0-.833-.347H4267.1c-.035,0-.051.019-.051.056v2.361c0,.037.016.056.051.056h1.513A1.088,1.088,0,0,0,4269.445,694.558Z" transform="translate(-4217.607 -691.223)" fill="#0a0a0a"/>
      <path id="Trazado_72" data-name="Trazado 72" d="M4296.051,699.147a.135.135,0,0,1-.035-.1v-7.566a.135.135,0,0,1,.035-.1.113.113,0,0,1,.086-.039h.935a.113.113,0,0,1,.086.039.136.136,0,0,1,.036.1v7.566a.136.136,0,0,1-.036.1.112.112,0,0,1-.086.039h-.935A.113.113,0,0,1,4296.051,699.147Z" transform="translate(-4241.761 -691.262)" fill="#0a0a0a"/>
      <path id="Trazado_73" data-name="Trazado 73" d="M4310.1,700.846a1.789,1.789,0,0,1,1.016,1.657v3.772a.139.139,0,0,1-.035.1.113.113,0,0,1-.087.039h-.934a.109.109,0,0,1-.086-.039.135.135,0,0,1-.036-.1v-.358c0-.022-.006-.035-.021-.039a.04.04,0,0,0-.041.017,1.76,1.76,0,0,1-1.442.6,1.849,1.849,0,0,1-1.254-.425,1.58,1.58,0,0,1-.493-1.265,1.717,1.717,0,0,1,.554-1.36,2.283,2.283,0,0,1,1.559-.487h1.086c.034,0,.051-.018.051-.056v-.269a.831.831,0,0,0-.934-.918,1.151,1.151,0,0,0-.625.151.651.651,0,0,0-.3.42c-.02.09-.067.127-.142.112l-.986-.134a.215.215,0,0,1-.086-.039.066.066,0,0,1-.025-.073,1.586,1.586,0,0,1,.665-1.119,2.383,2.383,0,0,1,1.467-.436A2.468,2.468,0,0,1,4310.1,700.846Zm-.518,4.331a.914.914,0,0,0,.355-.739v-.526c0-.037-.017-.056-.051-.056h-.853a1.426,1.426,0,0,0-.849.224.739.739,0,0,0-.309.638.676.676,0,0,0,.239.554.936.936,0,0,0,.614.2A1.3,1.3,0,0,0,4309.587,705.178Z" transform="translate(-4250.316 -698.484)" fill="#0a0a0a"/>
      <path id="Trazado_74" data-name="Trazado 74" d="M4337.456,700.729a.113.113,0,0,1,.086-.039h.934a.113.113,0,0,1,.086.039.141.141,0,0,1,.035.1v5.2a2.452,2.452,0,0,1-.726,2,2.9,2.9,0,0,1-1.9.6,5.649,5.649,0,0,1-.619-.034c-.075-.008-.112-.056-.112-.146l.031-.918c0-.082.047-.123.143-.123a4.708,4.708,0,0,0,.528.034,1.622,1.622,0,0,0,1.122-.33,1.455,1.455,0,0,0,.361-1.114v-.09c0-.022-.006-.035-.02-.039a.041.041,0,0,0-.041.017,1.456,1.456,0,0,1-1.178.492,2.117,2.117,0,0,1-1.208-.369,1.926,1.926,0,0,1-.761-1.131,5.668,5.668,0,0,1-.132-1.354,4.773,4.773,0,0,1,.163-1.421,2.169,2.169,0,0,1,.7-1.091,1.784,1.784,0,0,1,1.167-.409,1.566,1.566,0,0,1,1.249.515q.02.034.041.022a.046.046,0,0,0,.02-.045v-.269A.139.139,0,0,1,4337.456,700.729Zm-.051,3.414q.015-.2.016-.632t-.016-.61a1.886,1.886,0,0,0-.065-.364,1.09,1.09,0,0,0-.331-.593.911.911,0,0,0-.634-.224.9.9,0,0,0-.619.224,1.251,1.251,0,0,0-.366.593,2.924,2.924,0,0,0-.122.985,3.183,3.183,0,0,0,.1.974,1.166,1.166,0,0,0,.37.588.96.96,0,0,0,.645.23.908.908,0,0,0,.64-.224,1.1,1.1,0,0,0,.325-.582A2.184,2.184,0,0,0,4337.4,704.142Z" transform="translate(-4272.259 -698.484)" fill="#0a0a0a"/>
      <path id="Trazado_75" data-name="Trazado 75" d="M4364.825,700.846a1.79,1.79,0,0,1,1.015,1.657v3.772a.135.135,0,0,1-.036.1.111.111,0,0,1-.086.039h-.934a.112.112,0,0,1-.086-.039.135.135,0,0,1-.036-.1v-.358c0-.022-.006-.035-.02-.039a.041.041,0,0,0-.041.017,1.758,1.758,0,0,1-1.442.6,1.848,1.848,0,0,1-1.253-.425,1.577,1.577,0,0,1-.493-1.265,1.716,1.716,0,0,1,.554-1.36,2.283,2.283,0,0,1,1.559-.487h1.086c.034,0,.051-.018.051-.056v-.269a.83.83,0,0,0-.934-.918,1.154,1.154,0,0,0-.625.151.655.655,0,0,0-.3.42c-.02.09-.067.127-.142.112l-.985-.134a.2.2,0,0,1-.086-.039.067.067,0,0,1-.026-.073,1.589,1.589,0,0,1,.665-1.119,2.384,2.384,0,0,1,1.468-.436A2.47,2.47,0,0,1,4364.825,700.846Zm-.518,4.331a.914.914,0,0,0,.355-.739v-.526c0-.037-.017-.056-.051-.056h-.853a1.419,1.419,0,0,0-.847.224.739.739,0,0,0-.31.638.677.677,0,0,0,.238.554.938.938,0,0,0,.615.2A1.3,1.3,0,0,0,4364.307,705.178Z" transform="translate(-4294.161 -698.484)" fill="#0a0a0a"/>
      <path id="Trazado_76" data-name="Trazado 76" d="M4389.606,706.349a1.747,1.747,0,0,1-.747-.571,1.35,1.35,0,0,1-.264-.812v-.1a.138.138,0,0,1,.035-.1.113.113,0,0,1,.087-.039h.893a.113.113,0,0,1,.087.039.138.138,0,0,1,.035.1v.023a.6.6,0,0,0,.28.487,1.15,1.15,0,0,0,.705.207,1.1,1.1,0,0,0,.66-.184.555.555,0,0,0,.254-.465.424.424,0,0,0-.208-.386,3.2,3.2,0,0,0-.675-.274l-.386-.134a5.376,5.376,0,0,1-.873-.358,1.773,1.773,0,0,1-.6-.52,1.388,1.388,0,0,1-.244-.845,1.54,1.54,0,0,1,.558-1.248,2.231,2.231,0,0,1,1.473-.464,2.541,2.541,0,0,1,1.086.218,1.7,1.7,0,0,1,.722.6,1.566,1.566,0,0,1,.254.879.135.135,0,0,1-.036.1.112.112,0,0,1-.086.039h-.864a.112.112,0,0,1-.086-.039.134.134,0,0,1-.035-.1.59.59,0,0,0-.259-.487,1.146,1.146,0,0,0-.706-.2,1.163,1.163,0,0,0-.645.162.512.512,0,0,0-.249.453.446.446,0,0,0,.239.408,3.926,3.926,0,0,0,.8.308l.223.067a6.746,6.746,0,0,1,.9.364,1.8,1.8,0,0,1,.62.515,1.37,1.37,0,0,1,.253.856,1.508,1.508,0,0,1-.568,1.248,2.358,2.358,0,0,1-1.513.453A2.819,2.819,0,0,1,4389.606,706.349Z" transform="translate(-4315.941 -698.564)" fill="#0a0a0a"/>
      <path id="Trazado_77" data-name="Trazado 77" d="M4426.5,698.952a2.25,2.25,0,0,1-.9-.923,2.892,2.892,0,0,1-.32-1.382v-5.16a.135.135,0,0,1,.036-.1.112.112,0,0,1,.086-.039h.935a.111.111,0,0,1,.085.039.135.135,0,0,1,.036.1v5.182a1.535,1.535,0,0,0,.376,1.074,1.4,1.4,0,0,0,1.99,0,1.537,1.537,0,0,0,.375-1.074v-5.182a.136.136,0,0,1,.036-.1.11.11,0,0,1,.086-.039h.935a.114.114,0,0,1,.086.039.14.14,0,0,1,.036.1v5.16a2.925,2.925,0,0,1-.315,1.382,2.218,2.218,0,0,1-.893.923,2.909,2.909,0,0,1-2.671,0Z" transform="translate(-4345.333 -691.262)" fill="#0a0a0a"/>
      <path id="Trazado_78" data-name="Trazado 78" d="M4460.5,700.847a.145.145,0,0,1,.061.168l-.172,1.007q-.011.134-.143.078a1.032,1.032,0,0,0-.355-.056,1.416,1.416,0,0,0-.2.011,1,1,0,0,0-.711.33,1.133,1.133,0,0,0-.284.8v3.168a.137.137,0,0,1-.035.1.115.115,0,0,1-.087.039h-.934a.112.112,0,0,1-.086-.039.137.137,0,0,1-.036-.1V700.9a.139.139,0,0,1,.036-.1.113.113,0,0,1,.086-.039h.934a.116.116,0,0,1,.087.039.138.138,0,0,1,.035.1v.5c0,.03,0,.047.015.05s.022-.006.035-.028a1.319,1.319,0,0,1,1.188-.727A1.089,1.089,0,0,1,4460.5,700.847Z" transform="translate(-4371.166 -698.564)" fill="#0a0a0a"/>
      <path id="Trazado_79" data-name="Trazado 79" d="M4481.319,696.31a4.612,4.612,0,0,1-.193,1.4,2.332,2.332,0,0,1-.721,1.153,1.84,1.84,0,0,1-1.218.414,1.412,1.412,0,0,1-1.168-.593c-.014-.022-.027-.03-.041-.022a.046.046,0,0,0-.021.045v.347a.135.135,0,0,1-.036.1.112.112,0,0,1-.086.039h-.934a.111.111,0,0,1-.086-.039.136.136,0,0,1-.036-.1v-7.566a.136.136,0,0,1,.036-.1.111.111,0,0,1,.086-.039h.934a.112.112,0,0,1,.086.039.135.135,0,0,1,.036.1v2.429a.047.047,0,0,0,.021.045c.013.007.027,0,.041-.011a1.385,1.385,0,0,1,1.157-.571,1.87,1.87,0,0,1,1.245.414,2.413,2.413,0,0,1,.726,1.153A5.123,5.123,0,0,1,4481.319,696.31Zm-1.208.022a2.592,2.592,0,0,0-.3-1.365.885.885,0,0,0-.812-.47.828.828,0,0,0-.762.492,3.676,3.676,0,0,0-.02,2.63.845.845,0,0,0,.792.537.937.937,0,0,0,.507-.14.987.987,0,0,0,.356-.4A2.824,2.824,0,0,0,4480.11,696.333Z" transform="translate(-4386.599 -691.262)" fill="#0a0a0a"/>
      <path id="Trazado_80" data-name="Trazado 80" d="M4507.168,700.846a1.789,1.789,0,0,1,1.016,1.657v3.772a.135.135,0,0,1-.036.1.112.112,0,0,1-.086.039h-.934a.111.111,0,0,1-.086-.039.133.133,0,0,1-.036-.1v-.358c0-.022-.006-.035-.02-.039a.039.039,0,0,0-.04.017,1.762,1.762,0,0,1-1.443.6,1.848,1.848,0,0,1-1.253-.425,1.577,1.577,0,0,1-.493-1.265,1.714,1.714,0,0,1,.554-1.36,2.281,2.281,0,0,1,1.558-.487h1.086c.034,0,.051-.018.051-.056v-.269a.831.831,0,0,0-.934-.918,1.154,1.154,0,0,0-.625.151.653.653,0,0,0-.3.42q-.03.134-.142.112l-.985-.134a.213.213,0,0,1-.087-.039.067.067,0,0,1-.025-.073,1.591,1.591,0,0,1,.665-1.119,2.384,2.384,0,0,1,1.467-.436A2.463,2.463,0,0,1,4507.168,700.846Zm-.518,4.331a.912.912,0,0,0,.355-.739v-.526c0-.037-.017-.056-.051-.056h-.853a1.419,1.419,0,0,0-.847.224.739.739,0,0,0-.31.638.676.676,0,0,0,.239.554.935.935,0,0,0,.614.2A1.3,1.3,0,0,0,4506.65,705.178Z" transform="translate(-4408.214 -698.484)" fill="#0a0a0a"/>
      <path id="Trazado_81" data-name="Trazado 81" d="M4535.763,701.137a2.088,2.088,0,0,1,.492,1.466v3.671a.133.133,0,0,1-.035.1.112.112,0,0,1-.087.039h-.934a.11.11,0,0,1-.086-.039.133.133,0,0,1-.036-.1v-3.4a1.267,1.267,0,0,0-.264-.834.865.865,0,0,0-.7-.319.887.887,0,0,0-.706.313,1.23,1.23,0,0,0-.269.828v3.414a.137.137,0,0,1-.035.1.112.112,0,0,1-.087.039h-.934a.109.109,0,0,1-.086-.039.133.133,0,0,1-.036-.1v-5.451a.135.135,0,0,1,.036-.1.109.109,0,0,1,.086-.039h.934a.113.113,0,0,1,.087.039.138.138,0,0,1,.035.1v.358a.046.046,0,0,0,.021.045c.014.007.023,0,.03-.022a1.426,1.426,0,0,1,1.259-.6A1.7,1.7,0,0,1,4535.763,701.137Z" transform="translate(-4430.813 -698.484)" fill="#0a0a0a"/>
      <path id="Trazado_82" data-name="Trazado 82" d="M4561.633,700.846a1.789,1.789,0,0,1,1.015,1.657v3.772a.133.133,0,0,1-.036.1.109.109,0,0,1-.086.039h-.934a.11.11,0,0,1-.086-.039.135.135,0,0,1-.036-.1v-.358c0-.022-.007-.035-.021-.039a.04.04,0,0,0-.041.017,1.761,1.761,0,0,1-1.442.6,1.85,1.85,0,0,1-1.254-.425,1.578,1.578,0,0,1-.492-1.265,1.715,1.715,0,0,1,.553-1.36,2.283,2.283,0,0,1,1.559-.487h1.086c.034,0,.051-.018.051-.056v-.269a.831.831,0,0,0-.935-.918,1.148,1.148,0,0,0-.624.151.648.648,0,0,0-.3.42q-.031.134-.142.112l-.985-.134a.212.212,0,0,1-.086-.039.067.067,0,0,1-.026-.073,1.589,1.589,0,0,1,.665-1.119,2.384,2.384,0,0,1,1.468-.436A2.473,2.473,0,0,1,4561.633,700.846Zm-.518,4.331a.914.914,0,0,0,.355-.739v-.526c0-.037-.018-.056-.051-.056h-.853a1.422,1.422,0,0,0-.848.224.74.74,0,0,0-.31.638.677.677,0,0,0,.238.554.937.937,0,0,0,.614.2A1.305,1.305,0,0,0,4561.115,705.178Z" transform="translate(-4451.854 -698.484)" fill="#0a0a0a"/>
      <path id="Trazado_83" data-name="Trazado 83" d="M4586.411,706.349a1.747,1.747,0,0,1-.746-.571,1.351,1.351,0,0,1-.264-.812v-.1a.136.136,0,0,1,.036-.1.112.112,0,0,1,.086-.039h.894a.113.113,0,0,1,.086.039.138.138,0,0,1,.036.1v.023a.6.6,0,0,0,.279.487,1.153,1.153,0,0,0,.706.207,1.094,1.094,0,0,0,.66-.184.555.555,0,0,0,.254-.465.425.425,0,0,0-.208-.386,3.182,3.182,0,0,0-.675-.274l-.385-.134a5.379,5.379,0,0,1-.874-.358,1.781,1.781,0,0,1-.6-.52,1.388,1.388,0,0,1-.244-.845,1.539,1.539,0,0,1,.559-1.248,2.23,2.23,0,0,1,1.473-.464,2.542,2.542,0,0,1,1.086.218,1.7,1.7,0,0,1,.721.6,1.566,1.566,0,0,1,.254.879.135.135,0,0,1-.036.1.111.111,0,0,1-.086.039h-.863a.113.113,0,0,1-.087-.039.134.134,0,0,1-.035-.1.59.59,0,0,0-.259-.487,1.144,1.144,0,0,0-.706-.2,1.164,1.164,0,0,0-.645.162.513.513,0,0,0-.249.453.447.447,0,0,0,.238.408,3.97,3.97,0,0,0,.8.308l.224.067a6.736,6.736,0,0,1,.9.364,1.793,1.793,0,0,1,.62.515,1.368,1.368,0,0,1,.254.856,1.509,1.509,0,0,1-.569,1.248,2.357,2.357,0,0,1-1.513.453A2.824,2.824,0,0,1,4586.411,706.349Z" transform="translate(-4473.632 -698.564)" fill="#0a0a0a"/>
    </g>
  </g>
</svg>
